<svg xmlns="http://www.w3.org/2000/svg" width="34" height="34" viewBox="0 0 34 34">
    <g fill="none" fill-rule="evenodd">
        <circle cx="17" cy="17" r="17" fill="#000" fill-opacity=".35"/>
        <path fill="#FFF" fill-rule="nonzero" d="M23.477 11.836a.948.948 0 0 0-.003-1.341l.031.03a.95.95 0 0 0-1.34-.002l-4.957 4.957a.292.292 0 0 1-.416 0l-4.956-4.957a.948.948 0 0 0-1.341.003l.03-.031a.95.95 0 0 0-.002 1.34l4.957 4.957c.115.115.116.3 0 .416l-4.957 4.956c-.37.37-.368.97.003 1.341l-.031-.03a.95.95 0 0 0 1.34.002l4.957-4.957a.292.292 0 0 1 .416 0l4.956 4.957c.37.37.97.368 1.341-.003l-.03.031a.95.95 0 0 0 .002-1.34l-4.957-4.957a.292.292 0 0 1 0-.416l4.957-4.956z"/>
    </g>
</svg>
