<svg xmlns="http://www.w3.org/2000/svg" width="49" height="21" viewBox="0 0 49 21"><path fill="#FFF" fill-rule="evenodd" d="M45.814 9.298c-.05.13-.07.27-.079.439-.01.03.01.05.04.05h2.011c.03 0 .05-.02.05-.05-.01-.15-.03-.29-.06-.38-.12-.469-.475-.759-1.01-.759-.506 0-.823.27-.952.7zm3.18 1.228c0 .08-.049.12-.118.12h-3.101c-.03 0-.05.02-.05.05.02.19.04.339.09.449.148.45.524.719 1.158.729.486 0 .833-.22 1.07-.56.05-.07.11-.08.169-.03l.614.51c.06.05.07.1.03.16-.416.589-1.14.928-1.991.918-1.03-.02-1.734-.509-2.061-1.328-.159-.37-.228-.818-.228-1.348-.01-.41.02-.779.119-1.088.267-.919 1.03-1.508 2.07-1.508 1.397 0 2.051.799 2.2 2.057.04.28.04.55.03.869zm-9.492.879c-.119-.34-.159-.74-.159-1.199 0-.52.06-.888.159-1.178.278-.879 1.07-1.428 2.09-1.428 1.06 0 1.873.6 2.11 1.368.04.13.06.24.07.32.01.08-.04.13-.109.14l-.892.129c-.07.01-.118-.02-.138-.1 0-.03 0-.05-.01-.08a.754.754 0 0 0-.04-.14c-.119-.359-.485-.639-.99-.639-.516 0-.872.29-.991.73-.06.19-.1.499-.1.888 0 .41.04.7.09.889.129.46.475.759 1 .759.506 0 .892-.29 1.001-.72.01-.02.01-.04.01-.05.01-.009.01-.019.01-.03.02-.079.07-.109.139-.099l.892.14c.069.01.118.06.108.14-.01.06-.02.14-.05.23-.256.858-1.09 1.387-2.11 1.387-1.02 0-1.803-.569-2.09-1.457zm-1.18-2.018v3.276c0 .07-.05.12-.119.12h-.911c-.07 0-.12-.05-.12-.12V9.627c0-.609-.366-1.029-.94-1.029-.565 0-.952.41-.952 1.019v3.046c0 .07-.049.12-.119.12h-.911a.115.115 0 0 1-.118-.12V7.8c0-.07.049-.12.118-.12h.911c.07 0 .12.05.12.12v.32c0 .04.03.059.05.019.277-.37.703-.54 1.228-.54 1.07 0 1.763.68 1.763 1.788zm-6.49 1.638v-.47c0-.03-.02-.05-.05-.05h-.831c-.684 0-1.13.27-1.13.77 0 .44.357.669.832.669.624 0 1.18-.37 1.18-.92zm1.15-1.727v3.365c0 .07-.05.12-.12.12h-.91a.115.115 0 0 1-.12-.12v-.32c0-.04-.03-.05-.06-.02-.316.35-.792.54-1.406.54-.922 0-1.704-.46-1.704-1.508 0-1.029.743-1.648 2.06-1.648h1.06c.03 0 .05-.02.05-.05v-.24c0-.509-.297-.819-.911-.819-.505 0-.823.19-.902.51-.02.07-.069.11-.138.1l-.962-.12c-.069-.01-.119-.05-.109-.1.1-.799.922-1.388 2.081-1.388 1.268 0 2.09.719 2.09 1.698zm-6.391 3.365v-6.75c0-.07.05-.12.119-.12h.911c.07 0 .119.05.119.12v6.75c0 .07-.05.12-.119.12h-.911a.115.115 0 0 1-.119-.12zm-2.34-2.467c0-.53-.02-.669-.079-.869-.099-.419-.425-.729-.94-.729-.506 0-.823.32-.962.73-.079.19-.118.459-.118.878 0 .44.04.72.098.87.13.408.476.728.991.728.535 0 .842-.32.941-.719.05-.19.07-.35.07-.889zm.12-2.516h.911c.07 0 .12.05.12.12v4.643c0 2.057-1.596 2.446-3.171 2.287-.08-.01-.11-.06-.11-.13l.03-.819c0-.08.05-.11.14-.11 1.297.12 1.96-.15 1.96-1.258v-.08c0-.04-.029-.05-.059-.02-.248.27-.614.44-1.149.44-.773 0-1.625-.37-1.922-1.339-.099-.36-.129-.778-.129-1.208 0-.47.03-.908.159-1.268.257-.789.93-1.338 1.823-1.338.554 0 .941.17 1.218.46.03.04.06.02.06-.02V7.8c0-.07.05-.12.119-.12zm-9.081-4.2L15.288.994h.001L15.288.87l-.006-.507A.356.356 0 0 0 14.924 0h-.01L6.38.01a7.513 7.513 0 0 0-2.556.58C1.747 1.472.358 2.973.07 5.275c-.293 2.349.3 4.379 2.459 5.687.008.005.089.08.043.14v.002c-.212.143-.428.282-.636.432-1.311.943-1.935 2.6-1.563 4.22.371 1.618 1.446 2.495 3.005 2.813.314.064.634.086.953.086 1.457 0 2.914-.032 4.37-.034.728 0 1.047.329 1.046 1.053l-.006.957a.36.36 0 0 0 .368.366c.005 0 .01.003.016.003l.253-.003h3.312l.235.003.015-.003a.349.349 0 0 0 .324-.198l.006-.008-.003.004c.058-.101 1.127-2.01.994-3.526-.23-1.682-1.537-3.053-3.541-3.31-.706-.091-3.023-.089-4.593-.085-.565 0-1.034.001-1.296-.002-.561-.008-.854-.285-.849-.734.007-.495.428-.854.942-.862.302-.005.605-.004.909-.002.836.003 1.674.007 2.492-.116 2.607-.39 4.335-2.128 4.675-4.544.15-1.066.001-2.095-.52-3.144h1.46a.353.353 0 0 0 .343-.36l.007-.563V3.48zm-5.216 3.214A2.811 2.811 0 0 1 7.786 9c-.16.027-.32.04-.475.04-1.703 0-3.051-1.532-2.762-3.302A2.81 2.81 0 0 1 6.836 3.43c1.918-.316 3.552 1.33 3.238 3.263z"></path></svg>